<?xml version="1.0" encoding="iso-8859-1"?>
<!-- Generator: Adobe Illustrator 16.0.0, SVG Export Plug-In . SVG Version: 6.00 Build 0)  -->
<!DOCTYPE svg PUBLIC "-//W3C//DTD SVG 1.1//EN" "http://www.w3.org/Graphics/SVG/1.1/DTD/svg11.dtd">
<svg version="1.1" id="Capa_1" xmlns="http://www.w3.org/2000/svg" xmlns:xlink="http://www.w3.org/1999/xlink" x="0px" y="0px"
	 width="576.279px" height="576.279px" viewBox="0 0 576.279 576.279" style="enable-background:new 0 0 576.279 576.279;"
	 xml:space="preserve">
<g>
	<g>
		<g>
			<path d="M517.641,176.053c32.059,0,58.139-26.082,58.139-58.14v-44.73c0-32.059-26.08-58.14-58.139-58.14H105.242H58.64
				c-32.059,0-58.14,26.082-58.14,58.14v361.133c0,32.059,26.082,58.139,58.14,58.139h287.032v9.684
				c0,8.338,1.691,16.391,5.025,23.936c3.176,7.186,7.695,13.572,13.43,18.982c11.064,10.434,25.516,16.18,40.693,16.18
				c13.535,0,26.801-4.762,37.355-13.408l112.816-92.432c0.949-0.777,2.391-1.992,4.014-3.611
				c21.955-21.898,22.012-57.578,0.129-79.539c-1.758-1.768-3.334-3.084-4.365-3.918l-114.361-92.637
				c-10.344-8.377-23.312-12.991-36.52-12.991c-14.943,0-29.17,5.658-40.057,15.934c-5.645,5.325-10.09,11.613-13.215,18.688
				c-3.281,7.424-4.943,15.348-4.943,23.547v10.576H161.51V176.052L517.641,176.053L517.641,176.053z M133.97,374.285h239.243
				c8.449,0,15.299-6.85,15.299-15.299v-38.117c0-9.104,7.467-15.328,15.377-15.328c3.273,0,6.625,1.068,9.555,3.439l114.363,92.639
				c0.34,0.273,0.674,0.555,0.982,0.865c5.217,5.236,5.207,13.74-0.031,18.965c-0.289,0.287-0.6,0.553-0.916,0.809l-112.818,92.434
				c-3.119,2.557-6.701,3.705-10.201,3.705c-8.387,0-16.309-6.596-16.309-16.258v-37.223c0-8.451-6.852-15.301-15.301-15.301H58.64
				c-8.45,0-15.3-6.85-15.3-15.301V73.183c0-8.45,6.85-15.3,15.3-15.3h46.602h412.398c8.449,0,15.299,6.85,15.299,15.3v44.73
				c0,8.45-6.85,15.3-15.299,15.3H133.97c-8.45,0-15.3,6.85-15.3,15.3v210.473C118.67,367.436,125.52,374.285,133.97,374.285z"/>
			<path d="M404.82,561.736c-15.305,0-29.879-5.794-41.036-16.315c-5.785-5.458-10.342-11.899-13.544-19.145
				c-3.363-7.61-5.068-15.731-5.068-24.138v-9.184H58.64C26.306,492.955,0,466.649,0,434.316V73.183
				c0-32.334,26.306-58.64,58.64-58.64h459c32.333,0,58.639,26.306,58.639,58.64v44.73c0,32.334-26.306,58.64-58.639,58.64
				l-355.631,0v154.393h183.164v-10.076c0-8.273,1.678-16.264,4.986-23.749c3.153-7.138,7.638-13.48,13.329-18.849
				c10.979-10.363,25.326-16.07,40.399-16.07c13.32,0,26.402,4.653,36.834,13.102l114.361,92.637
				c1.037,0.839,2.622,2.16,4.405,3.954c22.077,22.155,22.019,58.154-0.13,80.245c-1.644,1.64-3.099,2.865-4.051,3.645
				l-112.816,92.432C431.849,556.935,418.47,561.736,404.82,561.736z M58.64,15.543C26.857,15.543,1,41.4,1,73.183v361.133
				c0,31.782,25.857,57.639,57.64,57.639h287.532v10.184c0,8.266,1.677,16.251,4.982,23.733c3.148,7.123,7.628,13.455,13.315,18.821
				c10.972,10.346,25.302,16.043,40.351,16.043c13.419,0,26.573-4.722,37.039-13.295l112.816-92.432
				c0.935-0.766,2.365-1.971,3.977-3.579c21.759-21.702,21.816-57.066,0.128-78.832c-1.749-1.759-3.307-3.058-4.325-3.882
				L440.094,276.08c-10.255-8.306-23.112-12.879-36.205-12.879c-14.816,0-28.921,5.61-39.714,15.798
				c-5.594,5.277-10.001,11.51-13.101,18.526c-3.252,7.357-4.9,15.212-4.9,23.345v11.076H161.01V175.552h356.631
				c15.371,0,29.839-6.002,40.737-16.901c10.899-10.899,16.901-25.366,16.901-40.738v-44.73c0-31.783-25.856-57.64-57.639-57.64
				H58.64z M404.822,518.896c-8.084,0-16.809-6.407-16.809-16.758v-37.223c0-8.161-6.64-14.801-14.801-14.801H58.64
				c-8.712,0-15.8-7.088-15.8-15.801V73.183c0-8.712,7.088-15.8,15.8-15.8h459c8.712,0,15.799,7.088,15.799,15.8v44.73
				c0,8.712-7.087,15.8-15.799,15.8H133.97c-8.161,0-14.8,6.639-14.8,14.8v210.473c0,8.16,6.639,14.799,14.8,14.799h239.243
				c8.16,0,14.799-6.639,14.799-14.799v-38.117c0-9.776,8.241-15.828,15.877-15.828c3.586,0,6.999,1.228,9.869,3.551l114.363,92.639
				c0.312,0.251,0.679,0.556,1.022,0.901c5.411,5.432,5.396,14.256-0.032,19.671c-0.303,0.301-0.626,0.577-0.955,0.844
				L415.34,515.078C412.293,517.576,408.655,518.896,404.822,518.896z M58.64,58.383c-8.161,0-14.8,6.639-14.8,14.8v361.131
				c0,8.161,6.639,14.801,14.8,14.801h314.573c8.713,0,15.801,7.088,15.801,15.801v37.223c0,9.733,8.206,15.758,15.809,15.758
				c3.6,0,7.018-1.242,9.884-3.592l112.819-92.434c0.306-0.247,0.604-0.501,0.88-0.776c5.039-5.025,5.052-13.216,0.029-18.258
				c-0.31-0.312-0.649-0.594-0.941-0.828l-114.364-92.64c-2.69-2.178-5.886-3.328-9.24-3.328c-7.154,0-14.877,5.669-14.877,14.828
				v38.117c0,8.712-7.087,15.799-15.799,15.799H133.97c-8.712,0-15.8-7.087-15.8-15.799V148.513c0-8.712,7.088-15.8,15.8-15.8
				h383.67c8.16,0,14.799-6.639,14.799-14.8v-44.73c0-8.161-6.639-14.8-14.799-14.8H58.64z"/>
		</g>
	</g>
</g>
<g>
</g>
<g>
</g>
<g>
</g>
<g>
</g>
<g>
</g>
<g>
</g>
<g>
</g>
<g>
</g>
<g>
</g>
<g>
</g>
<g>
</g>
<g>
</g>
<g>
</g>
<g>
</g>
<g>
</g>
</svg>
