<?xml version="1.0" encoding="iso-8859-1"?>
<!-- Generator: Adobe Illustrator 16.0.0, SVG Export Plug-In . SVG Version: 6.00 Build 0)  -->
<!DOCTYPE svg PUBLIC "-//W3C//DTD SVG 1.1//EN" "http://www.w3.org/Graphics/SVG/1.1/DTD/svg11.dtd">
<svg version="1.1" id="Capa_1" xmlns="http://www.w3.org/2000/svg" xmlns:xlink="http://www.w3.org/1999/xlink" x="0px" y="0px"
	 width="596.621px" height="596.62px" viewBox="0 0 596.621 596.62" style="enable-background:new 0 0 596.621 596.62;"
	 xml:space="preserve">
<g>
	<g>
		<g>
			<path d="M572.794,407.13c-1.76-1.767-3.33-3.079-4.359-3.912l-114.369-92.643c-10.342-8.378-23.312-12.991-36.52-12.991
				c-14.943,0-29.168,5.659-40.057,15.934c-5.643,5.325-10.09,11.612-13.215,18.686c-3.281,7.426-4.945,15.349-4.945,23.549v10.576
				H168.299c-0.526-7.786-2.552-15.498-5.938-22.518c-3.975-8.242-9.86-15.61-17.021-21.307l-43.575-34.671
				c-10.271-8.172-23.101-12.673-36.127-12.673c0,0,0,0,0,0c-14.949,0-29.18,5.665-40.069,15.951
				c-5.637,5.324-10.079,11.61-13.202,18.68c-3.278,7.423-4.94,15.343-4.94,23.538v135.869c0,32.059,26.082,58.141,58.14,58.141
				h293.764v9.684c0,8.336,1.689,16.389,5.025,23.934c3.176,7.187,7.695,13.573,13.43,18.983
				c11.064,10.435,25.516,16.181,40.695,16.181c13.533,0,26.799-4.762,37.352-13.408l112.818-92.434
				c0.955-0.783,2.402-2.003,4.031-3.628C594.619,464.771,594.675,429.092,572.794,407.13z M542.416,456.332
				c-0.289,0.287-0.6,0.551-0.916,0.81l-112.816,92.434c-3.121,2.556-6.703,3.705-10.203,3.705c-8.387,0-16.309-6.596-16.309-16.258
				v-37.224c0-8.45-6.85-15.3-15.301-15.3H65.566c-8.45,0-15.3-6.851-15.3-15.3v-135.87c0-9.093,7.458-15.328,15.372-15.328
				c3.235,0,6.545,1.041,9.454,3.356l43.575,34.671c4.378,3.483,6.929,8.772,6.929,14.367v23.474c0,8.45,6.85,15.3,15.3,15.3
				h245.974c8.451,0,15.301-6.85,15.301-15.3v-38.116c0-9.103,7.465-15.328,15.375-15.328c3.275,0,6.625,1.067,9.555,3.439
				l114.363,92.638c0.34,0.274,0.674,0.556,0.982,0.864C547.664,442.603,547.654,451.108,542.416,456.332z"/>
			<path d="M418.482,596.62c-15.307,0-29.881-5.795-41.038-16.316c-5.785-5.459-10.343-11.9-13.544-19.146
				c-3.363-7.605-5.068-15.727-5.068-24.136v-9.184H65.567c-32.334,0-58.64-26.306-58.64-58.641V333.329
				c0-8.267,1.677-16.254,4.983-23.74c3.15-7.132,7.63-13.472,13.316-18.841c10.982-10.374,25.334-16.087,40.412-16.087
				c13.138,0,26.079,4.54,36.439,12.782l43.575,34.671c7.218,5.743,13.152,13.171,17.159,21.481
				c3.32,6.885,5.375,14.562,5.953,22.234H358.83v-10.076c0-8.27,1.678-16.261,4.988-23.751c3.151-7.133,7.636-13.475,13.329-18.847
				c10.981-10.363,25.329-16.071,40.399-16.071c13.323,0,26.404,4.653,36.834,13.102l114.369,92.643
				c1.033,0.836,2.612,2.154,4.399,3.948c22.075,22.157,22.024,58.146-0.112,80.227c-1.642,1.638-3.107,2.874-4.067,3.661
				L456.15,583.099C445.508,591.818,432.131,596.62,418.482,596.62z M65.639,275.66c-14.822,0-28.93,5.617-39.726,15.814
				c-5.588,5.278-9.992,11.509-13.087,18.519c-3.25,7.358-4.898,15.21-4.898,23.336v135.869c0,31.783,25.857,57.641,57.64,57.641
				h294.264v10.184c0,8.27,1.677,16.254,4.982,23.731c3.148,7.123,7.628,13.456,13.315,18.822
				c10.971,10.346,25.302,16.044,40.353,16.044c13.419,0,26.571-4.722,37.034-13.295l112.819-92.434
				c0.943-0.773,2.384-1.988,3.994-3.595c21.748-21.691,21.797-57.047,0.11-78.814c-1.752-1.759-3.305-3.055-4.319-3.876
				l-114.369-92.643c-10.252-8.306-23.11-12.88-36.205-12.88c-14.814,0-28.918,5.611-39.714,15.798
				c-5.596,5.281-10.003,11.514-13.101,18.524c-3.253,7.362-4.902,15.217-4.902,23.347v11.076H167.832l-0.032-0.467
				c-0.52-7.7-2.556-15.424-5.889-22.334c-3.942-8.175-9.78-15.482-16.882-21.132l-43.575-34.672
				C91.271,280.123,78.551,275.66,65.639,275.66z M418.48,553.78c-8.084,0-16.809-6.407-16.809-16.758v-37.224
				c0-8.161-6.64-14.8-14.801-14.8H65.566c-8.712,0-15.8-7.088-15.8-15.8v-135.87c0-9.776,8.239-15.828,15.872-15.828
				c3.541,0,6.917,1.198,9.766,3.465l43.575,34.671c4.523,3.6,7.117,8.979,7.117,14.759v23.474c0,8.16,6.639,14.8,14.8,14.8h245.974
				c8.161,0,14.801-6.64,14.801-14.8v-38.116c0-9.776,8.24-15.828,15.875-15.828c3.588,0,7,1.228,9.869,3.551l114.363,92.638
				c0.313,0.253,0.681,0.559,1.021,0.899c5.413,5.434,5.398,14.259-0.031,19.674c-0.302,0.299-0.624,0.573-0.953,0.842L429,549.962
				C425.95,552.46,422.312,553.78,418.48,553.78z M65.639,318.501c-7.152,0-14.872,5.669-14.872,14.828v135.87
				c0,8.16,6.639,14.8,14.8,14.8h321.304c8.713,0,15.801,7.088,15.801,15.8v37.224c0,9.733,8.206,15.758,15.809,15.758
				c3.598,0,7.017-1.242,9.887-3.592l112.816-92.434c0.304-0.249,0.603-0.502,0.88-0.777c5.039-5.025,5.053-13.216,0.029-18.259
				c-0.307-0.307-0.648-0.591-0.942-0.828l-114.363-92.638c-2.689-2.178-5.885-3.328-9.24-3.328
				c-7.153,0-14.875,5.669-14.875,14.828v38.116c0,8.712-7.088,15.8-15.801,15.8H140.896c-8.712,0-15.8-7.088-15.8-15.8v-23.474
				c0-5.474-2.457-10.567-6.74-13.976l-43.575-34.671C72.112,319.624,68.951,318.501,65.639,318.501z"/>
		</g>
		<g>
			<path d="M589.193,127.421c0-32.058-26.082-58.14-58.141-58.14H237.288v-9.684c0-8.336-1.69-16.389-5.025-23.933
				c-3.176-7.187-7.695-13.574-13.431-18.984C207.769,6.246,193.317,0.5,178.139,0.5c-13.535,0-26.8,4.761-37.353,13.408
				L27.968,106.341c-0.95,0.779-2.39,1.992-4.013,3.61C2,131.849,1.942,167.528,23.824,189.491c1.771,1.776,3.341,3.088,4.369,3.92
				l114.36,92.635c10.343,8.377,23.312,12.991,36.521,12.991c14.942,0,29.168-5.66,40.056-15.935
				c5.643-5.325,10.089-11.612,13.214-18.686c3.281-7.426,4.944-15.349,4.944-23.549v-10.577H428.32
				c0.525,7.787,2.553,15.498,5.938,22.519c3.975,8.241,9.861,15.609,17.02,21.305l43.576,34.671
				c10.27,8.173,23.102,12.674,36.127,12.674c14.949,0,29.18-5.665,40.07-15.951c5.637-5.324,10.078-11.609,13.201-18.68
				c3.279-7.423,4.941-15.342,4.941-23.538V127.421L589.193,127.421z M546.351,263.291c0,9.093-7.457,15.329-15.371,15.329
				c-3.234,0-6.545-1.042-9.455-3.356l-43.574-34.671c-4.377-3.484-6.928-8.772-6.928-14.368v-23.474c0-8.45-6.852-15.3-15.301-15.3
				H209.748c-8.45,0-15.3,6.85-15.3,15.3v38.116c0,9.103-7.466,15.329-15.375,15.329c-3.275,0-6.626-1.067-9.555-3.44
				L55.153,160.118c-0.338-0.274-0.674-0.556-0.981-0.864c-5.217-5.237-5.208-13.742,0.03-18.966
				c0.289-0.288,0.601-0.551,0.916-0.81l112.819-92.434c3.12-2.556,6.702-3.706,10.203-3.706c8.386,0,16.309,6.596,16.309,16.258
				v37.224c0,8.45,6.85,15.3,15.3,15.3h321.305c8.449,0,15.299,6.85,15.299,15.3V263.291L546.351,263.291z"/>
			<path d="M530.98,321.96c-13.14,0-26.081-4.54-36.438-12.782l-43.576-34.671c-7.219-5.744-13.151-13.171-17.158-21.479
				c-3.321-6.889-5.376-14.567-5.953-22.236H237.788v10.077c0,8.271-1.678,16.262-4.987,23.751
				c-3.153,7.135-7.637,13.476-13.329,18.847c-10.981,10.363-25.329,16.071-40.399,16.071c-13.321,0-26.403-4.653-36.835-13.103
				L27.878,193.8c-1.039-0.841-2.625-2.167-4.408-3.956c-22.076-22.158-22.017-58.156,0.132-80.247
				c1.638-1.633,3.095-2.861,4.049-3.643l112.818-92.433C151.11,4.802,164.488,0,178.139,0c15.307,0,29.88,5.795,41.037,16.317
				c5.784,5.455,10.341,11.897,13.545,19.146c3.362,7.608,5.067,15.729,5.067,24.135v9.184h293.265
				c32.335,0,58.641,26.306,58.641,58.64v135.87c0,8.267-1.677,16.254-4.984,23.74c-3.15,7.132-7.63,13.472-13.314,18.841
				C560.41,316.247,546.057,321.96,530.98,321.96z M236.788,229.792h192l0.031,0.466c0.52,7.697,2.556,15.421,5.889,22.335
				c3.941,8.173,9.779,15.48,16.881,21.131l43.576,34.67c10.182,8.104,22.9,12.565,35.815,12.565c14.82,0,28.93-5.616,39.727-15.814
				c5.588-5.278,9.991-11.508,13.088-18.519c3.25-7.357,4.898-15.209,4.898-23.336v-135.87c0-31.783-25.857-57.64-57.641-57.64
				H236.788V59.598c0-8.267-1.676-16.251-4.982-23.731c-3.149-7.126-7.629-13.459-13.316-18.822C207.52,6.698,193.189,1,178.139,1
				c-13.42,0-26.573,4.721-37.036,13.294L28.285,106.728c-0.938,0.769-2.37,1.975-3.977,3.578
				c-21.758,21.701-21.817,57.065-0.13,78.833c1.75,1.756,3.309,3.058,4.33,3.885l114.36,92.635
				c10.255,8.306,23.113,12.88,36.206,12.88c14.814,0,28.917-5.61,39.712-15.798c5.594-5.279,10.002-11.511,13.1-18.524
				c3.252-7.361,4.902-15.216,4.902-23.347V229.792z M530.98,279.12c-3.539,0-6.916-1.198-9.767-3.465l-43.574-34.671
				c-4.522-3.6-7.116-8.979-7.116-14.759v-23.474c0-8.161-6.64-14.8-14.801-14.8H209.748c-8.161,0-14.8,6.639-14.8,14.8v38.116
				c0,9.777-8.241,15.829-15.875,15.829c-3.589,0-7.001-1.228-9.87-3.552L54.839,160.507c-0.333-0.27-0.688-0.566-1.021-0.9
				c-5.412-5.432-5.398-14.257,0.031-19.673c0.3-0.299,0.624-0.574,0.952-0.842l112.819-92.434c3.05-2.499,6.687-3.819,10.52-3.819
				c8.083,0,16.809,6.407,16.809,16.758v37.224c0,8.161,6.639,14.8,14.8,14.8h321.305c8.712,0,15.799,7.088,15.799,15.8v135.87
				C546.851,273.068,538.613,279.12,530.98,279.12z M209.748,186.951h245.975c8.713,0,15.801,7.088,15.801,15.8v23.474
				c0,5.473,2.456,10.567,6.739,13.977l43.574,34.671c2.671,2.124,5.833,3.247,9.144,3.247c7.152,0,14.871-5.669,14.871-14.829
				v-135.87c0-8.161-6.639-14.8-14.799-14.8H209.747c-8.712,0-15.8-7.088-15.8-15.8V59.597c0-9.733-8.206-15.758-15.809-15.758
				c-3.599,0-7.017,1.242-9.886,3.592L55.434,139.865c-0.302,0.248-0.603,0.501-0.879,0.777c-5.039,5.026-5.052,13.217-0.029,18.259
				c0.3,0.301,0.63,0.576,0.942,0.829l114.364,92.638c2.688,2.178,5.883,3.329,9.24,3.329c7.154,0,14.875-5.669,14.875-14.829
				v-38.116C193.948,194.039,201.036,186.951,209.748,186.951z"/>
		</g>
	</g>
</g>
<g>
</g>
<g>
</g>
<g>
</g>
<g>
</g>
<g>
</g>
<g>
</g>
<g>
</g>
<g>
</g>
<g>
</g>
<g>
</g>
<g>
</g>
<g>
</g>
<g>
</g>
<g>
</g>
<g>
</g>
</svg>
