<?xml version="1.0" encoding="iso-8859-1"?>
<!-- Generator: Adobe Illustrator 16.0.0, SVG Export Plug-In . SVG Version: 6.00 Build 0)  -->
<!DOCTYPE svg PUBLIC "-//W3C//DTD SVG 1.1//EN" "http://www.w3.org/Graphics/SVG/1.1/DTD/svg11.dtd">
<svg version="1.1" id="Capa_1" xmlns="http://www.w3.org/2000/svg" xmlns:xlink="http://www.w3.org/1999/xlink" x="0px" y="0px"
	 width="592.838px" height="592.838px" viewBox="0 0 592.838 592.838" style="enable-background:new 0 0 592.838 592.838;"
	 xml:space="preserve">
<g>
	<g>
		<g>
			<path d="M332.236,246.068L87.71,104.891c-8.851-5.111-18.895-7.812-29.044-7.812h-0.001h-0.002h-0.004
				C26.589,97.083,0.5,123.174,0.5,155.241v282.357c0,32.07,26.092,58.162,58.163,58.162c10.151,0,20.196-2.701,29.048-7.812
				L332.237,346.77c9.16-5.289,16.693-12.941,21.787-22.129c4.766-8.598,7.283-18.355,7.283-28.222
				c0-9.866-2.518-19.625-7.283-28.221C348.931,259.009,341.397,251.357,332.236,246.068z M310.817,309.67L66.29,450.848
				c-2.465,1.424-5.08,2.072-7.627,2.072c-7.992,0-15.323-6.391-15.323-15.322V155.241c0-8.931,7.332-15.322,15.323-15.322
				c2.548-0.001,5.161,0.649,7.627,2.073L310.817,283.17C321.018,289.058,321.018,303.781,310.817,309.67z"/>
			<path d="M58.663,496.26C26.316,496.26,0,469.944,0,437.598V155.241c0-32.342,26.313-58.658,58.658-58.663
				c10.245,0,20.375,2.725,29.302,7.879l244.526,141.178c9.238,5.333,16.837,13.051,21.976,22.32
				c4.806,8.668,7.346,18.511,7.346,28.463c0,9.952-2.54,19.794-7.346,28.464c-5.139,9.268-12.737,16.986-21.975,22.319
				L87.961,488.38C79.034,493.535,68.903,496.26,58.663,496.26z M58.666,97.578C26.865,97.583,1,123.45,1,155.241v282.357
				c0,31.795,25.868,57.662,57.663,57.662c10.064,0,20.022-2.679,28.798-7.745l244.526-141.178c9.08-5.243,16.55-12.83,21.6-21.938
				c4.724-8.522,7.221-18.197,7.221-27.98c0-9.783-2.497-19.458-7.221-27.978c-5.05-9.11-12.52-16.697-21.601-21.939L87.46,105.324
				C78.685,100.256,68.728,97.578,58.666,97.578z M58.663,453.42c-8.725,0-15.823-7.098-15.823-15.822V155.241
				c0-8.724,7.098-15.822,15.823-15.822h0.006c2.764,0,5.412,0.72,7.871,2.14l244.527,141.179c4.946,2.855,7.9,7.971,7.9,13.683
				c0,5.712-2.953,10.828-7.9,13.683L66.54,451.28C64.082,452.7,61.432,453.42,58.663,453.42z M58.669,139.918l-0.006,0.5
				c-8.173,0-14.823,6.65-14.823,14.822v282.357c0,8.173,6.65,14.822,14.823,14.822c2.591,0,5.073-0.675,7.377-2.005
				l244.527-141.178c4.634-2.676,7.4-7.467,7.4-12.818c0-5.351-2.767-10.142-7.4-12.816L66.04,142.424
				c-2.305-1.331-4.785-2.006-7.371-2.006V139.918z"/>
		</g>
		<g>
			<path d="M534.198,98.098h-77.469c-32.059,0-58.141,26.082-58.141,58.14V432.74c0,32.059,26.082,58.141,58.141,58.141h77.469
				c32.059,0,58.14-26.082,58.14-58.141V156.238C592.338,124.179,566.257,98.098,534.198,98.098z M549.498,432.74
				c0,8.449-6.851,15.299-15.3,15.299h-77.469c-8.45,0-15.3-6.85-15.3-15.299V156.238c0-8.45,6.85-15.3,15.3-15.3h77.469
				c8.449,0,15.3,6.85,15.3,15.3V432.74z"/>
			<path d="M534.198,491.381h-77.469c-32.335,0-58.641-26.306-58.641-58.641V156.238c0-32.334,26.306-58.64,58.641-58.64h77.469
				c32.334,0,58.64,26.306,58.64,58.64V432.74C592.838,465.075,566.532,491.381,534.198,491.381z M456.729,98.598
				c-31.783,0-57.641,25.857-57.641,57.64V432.74c0,31.783,25.857,57.641,57.641,57.641h77.469c31.782,0,57.64-25.857,57.64-57.641
				V156.238c0-31.783-25.857-57.64-57.64-57.64H456.729z M534.198,448.539h-77.469c-8.712,0-15.8-7.087-15.8-15.799V156.238
				c0-8.712,7.088-15.8,15.8-15.8h77.469c8.712,0,15.8,7.088,15.8,15.8V432.74C549.998,441.452,542.91,448.539,534.198,448.539z
				 M456.729,141.438c-8.161,0-14.8,6.639-14.8,14.8V432.74c0,8.16,6.639,14.799,14.8,14.799h77.469c8.161,0,14.8-6.639,14.8-14.799
				V156.238c0-8.161-6.639-14.8-14.8-14.8H456.729z"/>
		</g>
	</g>
</g>
<g>
</g>
<g>
</g>
<g>
</g>
<g>
</g>
<g>
</g>
<g>
</g>
<g>
</g>
<g>
</g>
<g>
</g>
<g>
</g>
<g>
</g>
<g>
</g>
<g>
</g>
<g>
</g>
<g>
</g>
</svg>
