<?xml version="1.0" encoding="iso-8859-1"?>
<!-- Generator: Adobe Illustrator 16.0.0, SVG Export Plug-In . SVG Version: 6.00 Build 0)  -->
<!DOCTYPE svg PUBLIC "-//W3C//DTD SVG 1.1//EN" "http://www.w3.org/Graphics/SVG/1.1/DTD/svg11.dtd">
<svg version="1.1" id="Capa_1" xmlns="http://www.w3.org/2000/svg" xmlns:xlink="http://www.w3.org/1999/xlink" x="0px" y="0px"
	 width="601.385px" height="601.385px" viewBox="0 0 601.385 601.385" style="enable-background:new 0 0 601.385 601.385;"
	 xml:space="preserve">
<g>
	<g>
		<g>
			<path d="M346.35,80.738c-10.855-10.367-25.076-16.078-40.045-16.078c-10.833,0-21.446,3.063-30.69,8.857l-159.161,99.761H58.354
				c-31.9,0-57.854,25.952-57.854,57.853v138.918c0,31.9,25.953,57.854,57.854,57.854h57.773l159.487,99.965
				c9.244,5.795,19.856,8.857,30.691,8.857c14.969,0,29.189-5.71,40.047-16.078c5.543-5.293,9.908-11.525,12.979-18.523
				c3.227-7.353,4.861-15.184,4.861-23.275V300.795v-0.205V122.539c0-8.094-1.635-15.925-4.861-23.278
				C356.26,92.264,351.893,86.032,346.35,80.738z M321.352,300.59v0.205v178.052c0,8.803-7.225,15.037-15.047,15.037
				c-2.664,0-5.399-0.724-7.939-2.316L137.221,390.564c-5.735-3.595-12.368-5.502-19.137-5.502h-59.73
				c-8.292,0-15.014-6.722-15.014-15.014V231.131c0-8.291,6.722-15.013,15.014-15.013h60.059c6.77,0,13.4-1.907,19.137-5.502
				l160.816-100.799c2.541-1.593,5.273-2.316,7.939-2.316c7.822,0,15.049,6.236,15.049,15.038L321.352,300.59L321.352,300.59z"/>
			<path d="M306.305,537.225c-10.929,0-21.634-3.089-30.957-8.934l-159.365-99.889H58.354C26.177,428.402,0,402.225,0,370.049
				V231.131c0-32.176,26.177-58.353,58.354-58.353h57.957l159.039-99.685c9.325-5.844,20.029-8.934,30.956-8.934
				c15.096,0,29.44,5.759,40.391,16.216c5.591,5.34,9.995,11.625,13.093,18.683c3.254,7.415,4.903,15.314,4.903,23.479v356.309
				c0,8.163-1.649,16.062-4.903,23.477c-3.099,7.062-7.503,13.348-13.091,18.684C335.746,531.466,321.401,537.225,306.305,537.225z
				 M58.354,173.778C26.729,173.778,1,199.506,1,231.131v138.918c0,31.625,25.729,57.354,57.354,57.354h57.917l0.122,0.076
				l159.487,99.965c9.164,5.745,19.685,8.781,30.426,8.781c14.838,0,28.938-5.661,39.701-15.939
				c5.493-5.245,9.821-11.423,12.866-18.363c3.198-7.287,4.819-15.05,4.819-23.074V122.539c0-8.025-1.621-15.79-4.819-23.077
				c-3.044-6.937-7.373-13.114-12.868-18.362c-10.763-10.279-24.861-15.939-39.699-15.939c-10.738,0-21.259,3.037-30.424,8.781
				l-159.283,99.837H58.354z M306.305,494.384c-2.871,0-5.708-0.827-8.205-2.393L136.956,390.988
				c-5.663-3.55-12.189-5.426-18.872-5.426h-59.73c-8.554,0-15.514-6.959-15.514-15.514V231.131c0-8.554,6.959-15.513,15.514-15.513
				h60.059c6.682,0,13.207-1.876,18.871-5.426L298.1,109.394c2.497-1.565,5.334-2.393,8.205-2.393
				c8.573,0,15.549,6.97,15.549,15.538l-0.002,356.308C321.852,487.414,314.877,494.384,306.305,494.384z M58.354,216.618
				c-8.003,0-14.514,6.51-14.514,14.513v138.918c0,8.003,6.511,14.514,14.514,14.514h59.73c6.871,0,13.58,1.929,19.403,5.578
				l161.144,101.003c2.337,1.466,4.991,2.24,7.674,2.24c8.021,0,14.547-6.521,14.547-14.537l0.002-356.308
				c0-8.016-6.526-14.538-14.549-14.538c-2.683,0-5.336,0.774-7.674,2.24L137.814,211.04c-5.824,3.649-12.533,5.578-19.402,5.578
				H58.354z"/>
		</g>
		<g>
			<path d="M426.721,196.111c-5.266-10.594-18.123-14.914-28.715-9.646c-10.594,5.266-14.912,18.123-9.646,28.716
				c12.426,24.995,18.994,54.604,18.994,85.626c0,31.506-6.756,61.487-19.535,86.705c-5.348,10.553-1.129,23.442,9.424,28.79
				c3.104,1.572,6.408,2.317,9.666,2.317c7.814,0,15.35-4.294,19.123-11.742c15.807-31.191,24.162-67.869,24.162-106.07
				C450.193,263.203,442.076,226.999,426.721,196.111z"/>
			<path d="M406.908,419.12c-3.458,0-6.786-0.798-9.892-2.371c-10.782-5.464-15.108-18.681-9.645-29.462
				c12.745-25.15,19.481-55.054,19.481-86.479c0-30.945-6.55-60.478-18.941-85.404c-2.606-5.243-3.016-11.188-1.15-16.738
				c1.864-5.55,5.778-10.042,11.021-12.648c3.064-1.524,6.342-2.297,9.741-2.297c8.386,0,15.913,4.663,19.645,12.168
				c15.39,30.958,23.524,67.238,23.524,104.919c0,38.278-8.374,75.034-24.216,106.296
				C422.723,414.516,415.224,419.12,406.908,419.12z M407.524,184.72c-3.243,0-6.371,0.738-9.296,2.193
				c-5.004,2.487-8.74,6.774-10.52,12.071c-1.779,5.297-1.39,10.97,1.098,15.974c12.461,25.064,19.047,54.75,19.047,85.849
				c0,31.582-6.773,61.643-19.589,86.931c-5.215,10.29-1.086,22.904,9.203,28.118c2.965,1.502,6.141,2.264,9.44,2.264
				c7.937,0,15.094-4.395,18.677-11.468c15.771-31.123,24.108-67.724,24.108-105.845c0-37.527-8.099-73.654-23.42-104.474
				C422.712,189.17,415.528,184.72,407.524,184.72z"/>
		</g>
		<g>
			<path d="M487.711,137.466c-5.266-10.593-18.123-14.911-28.717-9.646c-10.594,5.266-14.912,18.122-9.646,28.716
				c20.932,42.105,31.994,91.864,31.994,143.897c0,52.848-11.381,103.238-32.912,145.726c-5.348,10.553-1.127,23.442,9.424,28.789
				c3.104,1.573,6.41,2.318,9.666,2.318c7.816,0,15.35-4.294,19.123-11.742c24.559-48.461,37.539-105.549,37.539-165.091
				C524.184,241.817,511.57,185.464,487.711,137.466z"/>
			<path d="M467.52,477.766c-3.459,0-6.787-0.798-9.893-2.372c-10.78-5.464-15.106-18.68-9.644-29.461
				c21.496-42.418,32.858-92.731,32.858-145.5c0-51.958-11.045-101.64-31.941-143.674c-2.606-5.243-3.015-11.188-1.15-16.738
				s5.778-10.042,11.021-12.648c3.065-1.523,6.343-2.296,9.741-2.296c8.388,0,15.915,4.662,19.646,12.167
				c23.896,48.071,36.525,104.501,36.523,163.189c0,59.621-12.999,116.787-37.593,165.316
				C483.334,473.161,475.835,477.766,467.52,477.766z M468.513,126.076c-3.243,0-6.37,0.737-9.296,2.191
				c-5.004,2.487-8.74,6.774-10.52,12.071s-1.389,10.97,1.098,15.974c20.966,42.172,32.047,92.008,32.047,144.12
				c0,52.925-11.399,103.395-32.966,145.951c-5.215,10.29-1.086,22.903,9.203,28.117c2.965,1.503,6.141,2.265,9.44,2.265
				c7.937,0,15.094-4.395,18.677-11.468c24.523-48.391,37.485-105.4,37.485-164.865c0.002-58.535-12.592-114.811-36.418-162.744
				C483.703,130.526,476.519,126.076,468.513,126.076z"/>
		</g>
		<g>
			<path d="M526.52,76.434c-10.678,5.091-15.207,17.875-10.115,28.553c27.242,57.136,41.641,124.607,41.641,195.118
				c0,71.614-14.812,139.944-42.838,197.605c-5.172,10.64-0.738,23.457,9.9,28.628c3.018,1.467,6.207,2.16,9.348,2.16
				c7.943,0,15.576-4.438,19.281-12.062c30.846-63.462,47.148-138.269,47.148-216.332c0-76.85-15.842-150.696-45.811-213.555
				C549.98,75.872,537.199,71.343,526.52,76.434z"/>
			<path d="M534.455,528.998c-3.33,0-6.549-0.744-9.566-2.21c-5.266-2.56-9.22-7.017-11.133-12.55
				c-1.914-5.533-1.559-11.481,1.001-16.747c27.992-57.592,42.788-125.848,42.788-197.387c0-70.438-14.382-137.834-41.592-194.902
				c-2.521-5.285-2.831-11.235-0.876-16.754c1.955-5.519,5.942-9.946,11.228-12.465c2.977-1.419,6.146-2.139,9.419-2.139
				c8.409,0,16.183,4.903,19.802,12.49c30.002,62.927,45.859,136.848,45.859,213.771c0,78.141-16.321,153.022-47.199,216.551
				C550.486,524.269,542.926,528.998,534.455,528.998z M535.724,74.844c-3.123,0-6.147,0.687-8.989,2.041
				c-5.043,2.405-8.849,6.63-10.715,11.897c-1.866,5.268-1.569,10.946,0.836,15.99c27.273,57.202,41.689,124.747,41.689,195.333
				c0,71.69-14.83,140.097-42.889,197.824c-2.442,5.025-2.782,10.701-0.955,15.982c1.826,5.281,5.6,9.534,10.625,11.978
				c2.88,1.399,5.951,2.109,9.129,2.109c8.085,0,15.301-4.514,18.831-11.78c30.812-63.393,47.099-138.123,47.099-216.113
				c0-76.774-15.824-150.546-45.762-213.34C551.168,79.523,543.75,74.844,535.724,74.844z"/>
		</g>
	</g>
</g>
</svg>
